<svg width="168" height="154" viewBox="0 0 168 154" fill="none" xmlns="http://www.w3.org/2000/svg">
<path d="M166.25 138.25H15.75V1.75C15.75 0.7875 14.9625 0 14 0H1.75C0.7875 0 0 0.7875 0 1.75V152.25C0 153.212 0.7875 154 1.75 154H166.25C167.212 154 168 153.212 168 152.25V140C168 139.037 167.212 138.25 166.25 138.25ZM38.8937 104.497C39.5719 105.175 40.6656 105.175 41.3656 104.497L71.6188 74.3969L99.5312 102.484C100.209 103.162 101.325 103.162 102.003 102.484L162.247 42.2625C162.925 41.5844 162.925 40.4687 162.247 39.7906L153.584 31.1281C153.255 30.8024 152.811 30.6197 152.348 30.6197C151.886 30.6197 151.441 30.8024 151.113 31.1281L100.8 81.4187L72.9313 53.375C72.6023 53.0493 72.1582 52.8666 71.6953 52.8666C71.2324 52.8666 70.7883 53.0493 70.4594 53.375L30.2531 93.3406C29.9274 93.6695 29.7447 94.1137 29.7447 94.5766C29.7447 95.0394 29.9274 95.4836 30.2531 95.8125L38.8937 104.497Z" fill="white"/>
</svg>
