<svg width="547" height="86" viewBox="0 0 547 86" fill="none" xmlns="http://www.w3.org/2000/svg">
<path d="M119.209 69.4217V15.4012H146.214C150.192 15.4012 153.462 16.11 156.027 17.5274C158.644 18.9449 160.606 20.9398 161.915 23.5122C163.223 26.0846 163.877 29.1557 163.877 32.7256C163.877 36.243 163.197 39.3141 161.836 41.939C160.475 44.5639 158.434 46.6113 155.713 48.0813C153.044 49.4987 149.694 50.2074 145.664 50.2074H129.414V69.4217H119.209ZM129.414 41.4665H145.35C147.967 41.4665 149.982 40.7053 151.395 39.1828C152.861 37.6079 153.593 35.4555 153.593 32.7256C153.593 30.8882 153.279 29.3395 152.651 28.0795C152.023 26.8196 151.107 25.8484 149.904 25.1659C148.7 24.4834 147.182 24.1422 145.35 24.1422H129.414V41.4665Z" fill="#0052CC"/>
<path d="M170.936 69.4217V28.0008H178.944L179.729 34.5368H180.278C180.802 33.2243 181.43 32.0169 182.162 30.9144C182.947 29.7595 183.942 28.8407 185.145 28.1583C186.349 27.4233 187.814 27.0558 189.541 27.0558C190.379 27.0558 191.138 27.1346 191.818 27.292C192.551 27.4495 193.1 27.607 193.467 27.7645V36.8204H190.562C188.94 36.8204 187.5 37.0567 186.244 37.5292C184.988 37.9491 183.915 38.6316 183.026 39.5766C182.188 40.5215 181.56 41.7027 181.142 43.1202C180.723 44.5376 180.514 46.1913 180.514 48.0813V69.4217H170.936Z" fill="#0052CC"/>
<path d="M216.981 70.3667C212.48 70.3667 208.712 69.6054 205.677 68.083C202.641 66.508 200.365 64.1194 198.847 60.917C197.329 57.7146 196.571 53.646 196.571 48.7112C196.571 43.7239 197.329 39.6553 198.847 36.5054C200.365 33.3031 202.641 30.9407 205.677 29.4182C208.712 27.8433 212.48 27.0558 216.981 27.0558C221.534 27.0558 225.303 27.8433 228.286 29.4182C231.321 30.9407 233.598 33.3031 235.116 36.5054C236.633 39.6553 237.392 43.7239 237.392 48.7112C237.392 53.646 236.633 57.7146 235.116 60.917C233.598 64.1194 231.321 66.508 228.286 68.083C225.303 69.6054 221.534 70.3667 216.981 70.3667ZM216.981 62.492C219.493 62.492 221.508 62.0195 223.026 61.0745C224.596 60.077 225.721 58.6071 226.402 56.6647C227.134 54.6698 227.501 52.2023 227.501 49.2625V48.16C227.501 45.2201 227.134 42.779 226.402 40.8365C225.721 38.8416 224.596 37.3717 223.026 36.4267C221.508 35.4292 219.493 34.9305 216.981 34.9305C214.469 34.9305 212.428 35.4292 210.858 36.4267C209.34 37.3717 208.215 38.8416 207.482 40.8365C206.802 42.779 206.462 45.2201 206.462 48.16V49.2625C206.462 52.2023 206.802 54.6698 207.482 56.6647C208.215 58.6071 209.34 60.077 210.858 61.0745C212.428 62.0195 214.469 62.492 216.981 62.492Z" fill="#0052CC"/>
<path d="M262.722 70.3667C258.43 70.3667 254.845 69.6054 251.967 68.083C249.141 66.508 247.021 64.1194 245.608 60.917C244.195 57.7146 243.488 53.646 243.488 48.7112C243.488 43.7239 244.195 39.6553 245.608 36.5054C247.073 33.3031 249.219 30.9407 252.045 29.4182C254.924 27.8433 258.482 27.0558 262.722 27.0558C265.495 27.0558 267.955 27.397 270.101 28.0795C272.247 28.762 274.078 29.812 275.596 31.2294C277.166 32.5943 278.344 34.3005 279.129 36.3479C279.914 38.3954 280.306 40.784 280.306 43.5139H270.572C270.572 41.5715 270.284 39.9703 269.708 38.7104C269.133 37.4504 268.243 36.5054 267.039 35.8755C265.888 35.193 264.396 34.8518 262.565 34.8518C260.419 34.8518 258.666 35.3505 257.305 36.3479C255.944 37.3454 254.924 38.8416 254.243 40.8365C253.615 42.779 253.301 45.2464 253.301 48.2387V49.2625C253.301 52.2023 253.615 54.6698 254.243 56.6647C254.924 58.6596 255.97 60.1558 257.383 61.1533C258.796 62.0982 260.654 62.5707 262.957 62.5707C264.736 62.5707 266.202 62.2557 267.353 61.6257C268.557 60.9433 269.473 59.9458 270.101 58.6333C270.729 57.3209 271.043 55.746 271.043 53.9085H280.306C280.306 56.4809 279.914 58.7908 279.129 60.8383C278.344 62.8857 277.192 64.6181 275.675 66.0356C274.157 67.453 272.299 68.5292 270.101 69.2642C267.955 69.9992 265.495 70.3667 262.722 70.3667Z" fill="#0052CC"/>
<path d="M306.202 70.3667C301.806 70.3667 298.143 69.6054 295.212 68.083C292.281 66.508 290.083 64.1194 288.618 60.917C287.152 57.7146 286.42 53.646 286.42 48.7112C286.42 43.7239 287.152 39.6553 288.618 36.5054C290.083 33.3031 292.281 30.9407 295.212 29.4182C298.143 27.8433 301.806 27.0558 306.202 27.0558C310.18 27.0558 313.503 27.817 316.172 29.3395C318.894 30.8094 320.935 33.0931 322.295 36.1905C323.656 39.2878 324.337 43.3039 324.337 48.2387V51.0736H296.232C296.337 53.646 296.73 55.8247 297.41 57.6096C298.09 59.3421 299.137 60.6545 300.55 61.547C302.016 62.387 303.926 62.8069 306.281 62.8069C307.485 62.8069 308.61 62.6494 309.656 62.3345C310.703 62.0195 311.619 61.547 312.404 60.917C313.189 60.2345 313.791 59.3946 314.21 58.3971C314.681 57.3996 314.916 56.2447 314.916 54.9322H324.337C324.337 57.5571 323.866 59.8408 322.923 61.7832C322.034 63.7257 320.752 65.3268 319.077 66.5868C317.454 67.8467 315.544 68.7917 313.346 69.4217C311.148 70.0517 308.767 70.3667 306.202 70.3667ZM296.389 44.3014H314.367C314.367 42.569 314.157 41.099 313.739 39.8916C313.372 38.6841 312.823 37.6866 312.09 36.8992C311.41 36.1117 310.572 35.5605 309.578 35.2455C308.584 34.878 307.458 34.6943 306.202 34.6943C304.161 34.6943 302.434 35.0355 301.021 35.718C299.66 36.4004 298.614 37.4504 297.881 38.8679C297.148 40.2853 296.651 42.0965 296.389 44.3014Z" fill="#0052CC"/>
<path d="M348.558 70.3667C345.575 70.3667 342.958 70.0517 340.708 69.4217C338.458 68.7392 336.574 67.8205 335.056 66.6655C333.538 65.5106 332.387 64.1719 331.602 62.6494C330.869 61.0745 330.503 59.3683 330.503 57.5309C330.503 57.2684 330.503 57.0322 330.503 56.8222C330.555 56.6122 330.581 56.4547 330.581 56.3497H340.002C340.002 56.4547 340.002 56.5597 340.002 56.6647C340.002 56.7697 340.002 56.8747 340.002 56.9797C340.054 58.3971 340.499 59.5521 341.336 60.4445C342.173 61.2845 343.272 61.8882 344.633 62.2557C345.994 62.6232 347.433 62.8069 348.951 62.8069C350.312 62.8069 351.594 62.6757 352.798 62.4132C354.054 62.0982 355.074 61.6257 355.859 60.9958C356.696 60.3133 357.115 59.4471 357.115 58.3971C357.115 57.0322 356.592 55.9822 355.545 55.2472C354.498 54.5123 353.112 53.9085 351.384 53.436C349.71 52.9636 347.904 52.4648 345.968 51.9399C344.241 51.4674 342.514 50.9424 340.787 50.3649C339.06 49.7874 337.489 49.0525 336.076 48.16C334.716 47.2675 333.59 46.1126 332.701 44.6951C331.863 43.2777 331.445 41.519 331.445 39.4191C331.445 37.3717 331.89 35.5867 332.779 34.0643C333.669 32.5418 334.899 31.2819 336.469 30.2844C338.039 29.2345 339.897 28.447 342.043 27.922C344.188 27.397 346.517 27.1346 349.029 27.1346C351.489 27.1346 353.713 27.397 355.702 27.922C357.743 28.447 359.496 29.2082 360.962 30.2057C362.48 31.1506 363.631 32.3319 364.416 33.7493C365.253 35.1142 365.672 36.6367 365.672 38.3166C365.672 38.6841 365.646 39.0516 365.593 39.4191C365.593 39.7866 365.593 39.9966 365.593 40.0491H356.252V39.4978C356.252 38.5004 355.938 37.6604 355.31 36.9779C354.734 36.243 353.87 35.6655 352.719 35.2455C351.62 34.8255 350.233 34.6155 348.558 34.6155C347.302 34.6155 346.203 34.7205 345.261 34.9305C344.319 35.1405 343.534 35.4292 342.906 35.7967C342.33 36.1642 341.886 36.5842 341.572 37.0567C341.258 37.5292 341.101 38.0541 341.101 38.6316C341.101 39.6291 341.493 40.4165 342.278 40.994C343.063 41.5715 344.11 42.0702 345.418 42.4902C346.779 42.9102 348.244 43.3564 349.814 43.8289C351.698 44.3539 353.635 44.9051 355.624 45.4826C357.612 46.0076 359.444 46.6901 361.119 47.53C362.846 48.37 364.233 49.5512 365.279 51.0736C366.326 52.5961 366.85 54.6173 366.85 57.1372C366.85 59.5521 366.379 61.6257 365.436 63.3582C364.547 65.0381 363.265 66.4031 361.59 67.453C359.967 68.4505 358.031 69.1854 355.781 69.6579C353.583 70.1304 351.175 70.3667 348.558 70.3667Z" fill="#0052CC"/>
<path d="M391.03 70.3667C388.047 70.3667 385.43 70.0517 383.179 69.4217C380.929 68.7392 379.045 67.8205 377.527 66.6655C376.009 65.5106 374.858 64.1719 374.073 62.6494C373.34 61.0745 372.974 59.3683 372.974 57.5309C372.974 57.2684 372.974 57.0322 372.974 56.8222C373.026 56.6122 373.052 56.4547 373.052 56.3497H382.473C382.473 56.4547 382.473 56.5597 382.473 56.6647C382.473 56.7697 382.473 56.8747 382.473 56.9797C382.525 58.3971 382.97 59.5521 383.807 60.4445C384.645 61.2845 385.744 61.8882 387.105 62.2557C388.465 62.6232 389.904 62.8069 391.422 62.8069C392.783 62.8069 394.065 62.6757 395.269 62.4132C396.525 62.0982 397.545 61.6257 398.33 60.9958C399.168 60.3133 399.586 59.4471 399.586 58.3971C399.586 57.0322 399.063 55.9822 398.016 55.2472C396.97 54.5123 395.583 53.9085 393.856 53.436C392.181 52.9636 390.375 52.4648 388.439 51.9399C386.712 51.4674 384.985 50.9424 383.258 50.3649C381.531 49.7874 379.961 49.0525 378.548 48.16C377.187 47.2675 376.062 46.1126 375.172 44.6951C374.335 43.2777 373.916 41.519 373.916 39.4191C373.916 37.3717 374.361 35.5867 375.251 34.0643C376.14 32.5418 377.37 31.2819 378.94 30.2844C380.51 29.2345 382.368 28.447 384.514 27.922C386.66 27.397 388.989 27.1346 391.501 27.1346C393.96 27.1346 396.185 27.397 398.173 27.922C400.215 28.447 401.968 29.2082 403.433 30.2057C404.951 31.1506 406.102 32.3319 406.887 33.7493C407.725 35.1142 408.143 36.6367 408.143 38.3166C408.143 38.6841 408.117 39.0516 408.065 39.4191C408.065 39.7866 408.065 39.9966 408.065 40.0491H398.723V39.4978C398.723 38.5004 398.409 37.6604 397.781 36.9779C397.205 36.243 396.342 35.6655 395.19 35.2455C394.091 34.8255 392.704 34.6155 391.03 34.6155C389.774 34.6155 388.675 34.7205 387.733 34.9305C386.791 35.1405 386.005 35.4292 385.377 35.7967C384.802 36.1642 384.357 36.5842 384.043 37.0567C383.729 37.5292 383.572 38.0541 383.572 38.6316C383.572 39.6291 383.964 40.4165 384.749 40.994C385.534 41.5715 386.581 42.0702 387.89 42.4902C389.25 42.9102 390.716 43.3564 392.286 43.8289C394.17 44.3539 396.106 44.9051 398.095 45.4826C400.084 46.0076 401.915 46.6901 403.59 47.53C405.317 48.37 406.704 49.5512 407.751 51.0736C408.797 52.5961 409.321 54.6173 409.321 57.1372C409.321 59.5521 408.85 61.6257 407.908 63.3582C407.018 65.0381 405.736 66.4031 404.061 67.453C402.439 68.4505 400.502 69.1854 398.252 69.6579C396.054 70.1304 393.646 70.3667 391.03 70.3667Z" fill="#0052CC"/>
<path d="M427.692 69.4217L413.09 15.4012H423.924L432.637 50.1287C432.794 50.6537 432.951 51.3886 433.108 52.3336C433.265 53.2261 433.422 54.171 433.579 55.1685C433.736 56.1659 433.867 57.0584 433.972 57.8459H434.364C434.469 57.2159 434.548 56.5334 434.6 55.7985C434.705 55.0635 434.809 54.3285 434.914 53.5935C435.071 52.8586 435.202 52.2023 435.307 51.6249C435.411 50.9949 435.49 50.4962 435.542 50.1287L443.628 15.4012H456.738L464.824 50.1287C464.981 50.6537 465.138 51.3886 465.295 52.3336C465.452 53.2261 465.609 54.171 465.766 55.1685C465.923 56.1659 466.054 57.0584 466.158 57.8459H466.551C466.655 57.2684 466.76 56.6384 466.865 55.956C467.022 55.221 467.153 54.5123 467.257 53.8298C467.414 53.0948 467.571 52.4123 467.728 51.7824C467.885 51.1524 468.016 50.6012 468.121 50.1287L476.835 15.4012H486.412L471.732 69.4217H460.035L451.321 33.9855C451.164 33.2506 450.981 32.4106 450.772 31.4656C450.615 30.4682 450.458 29.497 450.301 28.552C450.196 27.5545 450.091 26.6883 449.987 25.9533H449.673C449.62 26.7408 449.516 27.6595 449.359 28.7095C449.254 29.707 449.123 30.6782 448.966 31.6231C448.809 32.5681 448.652 33.3556 448.495 33.9855L439.86 69.4217H427.692Z" fill="#0052CC"/>
<path d="M492.308 21.6223V12.4876H501.885V21.6223H492.308ZM492.308 69.4217V28.0008H501.885V69.4217H492.308Z" fill="#0052CC"/>
<path d="M508.868 69.4217V64.9331L529.75 35.8755H510.203V28.0008H543.723V32.4106L522.763 61.547H544.587V69.4217H508.868Z" fill="#0052CC"/>
<path d="M92.5532 77.2046H8.76819V0.977273C8.76819 0.439773 8.32978 0 7.79395 0H0.974244C0.43841 0 0 0.439773 0 0.977273V85.0227C0 85.5602 0.43841 86 0.974244 86H92.5532C93.089 86 93.5274 85.5602 93.5274 85.0227V78.1818C93.5274 77.6443 93.089 77.2046 92.5532 77.2046ZM21.6526 58.3554C22.0301 58.7341 22.639 58.7341 23.0287 58.3554L39.8709 41.5463L55.4101 57.2315C55.7876 57.6102 56.4087 57.6102 56.7862 57.2315L90.3246 23.6011C90.7021 23.2224 90.7021 22.5994 90.3246 22.2207L85.5021 17.3832C85.319 17.2014 85.0717 17.0993 84.814 17.0993C84.5563 17.0993 84.3091 17.2014 84.126 17.3832L56.1164 45.4676L40.6016 29.8068C40.4185 29.6249 40.1712 29.5229 39.9135 29.5229C39.6559 29.5229 39.4086 29.6249 39.2255 29.8068L16.8422 52.1253C16.6609 52.309 16.5592 52.557 16.5592 52.8155C16.5592 53.074 16.6609 53.322 16.8422 53.5057L21.6526 58.3554Z" fill="#0052CC"/>
</svg>
