<svg width="530" height="83" viewBox="0 0 530 83" fill="none" xmlns="http://www.w3.org/2000/svg">
<path d="M115.848 67V14.864H141.992C145.843 14.864 149.01 15.548 151.492 16.916C154.026 18.284 155.926 20.2093 157.192 22.692C158.459 25.1747 159.092 28.1387 159.092 31.584C159.092 34.9787 158.434 37.9427 157.116 40.476C155.799 43.0093 153.823 44.9853 151.188 46.404C148.604 47.772 145.362 48.456 141.46 48.456H125.728V67H115.848ZM125.728 40.02H141.156C143.69 40.02 145.64 39.2853 147.008 37.816C148.427 36.296 149.136 34.2187 149.136 31.584C149.136 29.8107 148.832 28.316 148.224 27.1C147.616 25.884 146.73 24.9467 145.564 24.288C144.399 23.6293 142.93 23.3 141.156 23.3H125.728V40.02Z" fill="white"/>
<path d="M165.926 67V27.024H173.678L174.438 33.332H174.97C175.477 32.0653 176.085 30.9 176.794 29.836C177.554 28.7213 178.517 27.8347 179.682 27.176C180.848 26.4667 182.266 26.112 183.938 26.112C184.749 26.112 185.484 26.188 186.142 26.34C186.852 26.492 187.384 26.644 187.738 26.796V35.536H184.926C183.356 35.536 181.962 35.764 180.746 36.22C179.53 36.6253 178.492 37.284 177.63 38.196C176.82 39.108 176.212 40.248 175.806 41.616C175.401 42.984 175.198 44.58 175.198 46.404V67H165.926Z" fill="white"/>
<path d="M210.503 67.912C206.146 67.912 202.498 67.1773 199.559 65.708C196.621 64.188 194.417 61.8827 192.947 58.792C191.478 55.7013 190.743 51.7747 190.743 47.012C190.743 42.1987 191.478 38.272 192.947 35.232C194.417 32.1413 196.621 29.8613 199.559 28.392C202.498 26.872 206.146 26.112 210.503 26.112C214.911 26.112 218.559 26.872 221.447 28.392C224.386 29.8613 226.59 32.1413 228.059 35.232C229.529 38.272 230.263 42.1987 230.263 47.012C230.263 51.7747 229.529 55.7013 228.059 58.792C226.59 61.8827 224.386 64.188 221.447 65.708C218.559 67.1773 214.911 67.912 210.503 67.912ZM210.503 60.312C212.935 60.312 214.886 59.856 216.355 58.944C217.875 57.9813 218.965 56.5627 219.623 54.688C220.333 52.7627 220.687 50.3813 220.687 47.544V46.48C220.687 43.6427 220.333 41.2867 219.623 39.412C218.965 37.4867 217.875 36.068 216.355 35.156C214.886 34.1933 212.935 33.712 210.503 33.712C208.071 33.712 206.095 34.1933 204.575 35.156C203.106 36.068 202.017 37.4867 201.307 39.412C200.649 41.2867 200.319 43.6427 200.319 46.48V47.544C200.319 50.3813 200.649 52.7627 201.307 54.688C202.017 56.5627 203.106 57.9813 204.575 58.944C206.095 59.856 208.071 60.312 210.503 60.312Z" fill="white"/>
<path d="M254.785 67.912C250.631 67.912 247.16 67.1773 244.373 65.708C241.637 64.188 239.585 61.8827 238.217 58.792C236.849 55.7013 236.165 51.7747 236.165 47.012C236.165 42.1987 236.849 38.272 238.217 35.232C239.636 32.1413 241.713 29.8613 244.449 28.392C247.236 26.872 250.681 26.112 254.785 26.112C257.471 26.112 259.852 26.4413 261.929 27.1C264.007 27.7587 265.78 28.772 267.249 30.14C268.769 31.4573 269.909 33.104 270.669 35.08C271.429 37.056 271.809 39.3613 271.809 41.996H262.385C262.385 40.1213 262.107 38.576 261.549 37.36C260.992 36.144 260.131 35.232 258.965 34.624C257.851 33.9653 256.407 33.636 254.633 33.636C252.556 33.636 250.859 34.1173 249.541 35.08C248.224 36.0427 247.236 37.4867 246.577 39.412C245.969 41.2867 245.665 43.668 245.665 46.556V47.544C245.665 50.3813 245.969 52.7627 246.577 54.688C247.236 56.6133 248.249 58.0573 249.617 59.02C250.985 59.932 252.784 60.388 255.013 60.388C256.736 60.388 258.155 60.084 259.269 59.476C260.435 58.8173 261.321 57.8547 261.929 56.588C262.537 55.3213 262.841 53.8013 262.841 52.028H271.809C271.809 54.5107 271.429 56.74 270.669 58.716C269.909 60.692 268.795 62.364 267.325 63.732C265.856 65.1 264.057 66.1387 261.929 66.848C259.852 67.5573 257.471 67.912 254.785 67.912Z" fill="white"/>
<path d="M296.88 67.912C292.624 67.912 289.077 67.1773 286.24 65.708C283.402 64.188 281.274 61.8827 279.856 58.792C278.437 55.7013 277.728 51.7747 277.728 47.012C277.728 42.1987 278.437 38.272 279.856 35.232C281.274 32.1413 283.402 29.8613 286.24 28.392C289.077 26.872 292.624 26.112 296.88 26.112C300.73 26.112 303.948 26.8467 306.532 28.316C309.166 29.7347 311.142 31.9387 312.46 34.928C313.777 37.9173 314.436 41.7933 314.436 46.556V49.292H287.228C287.329 51.7747 287.709 53.8773 288.368 55.6C289.026 57.272 290.04 58.5387 291.408 59.4C292.826 60.2107 294.676 60.616 296.956 60.616C298.121 60.616 299.21 60.464 300.224 60.16C301.237 59.856 302.124 59.4 302.884 58.792C303.644 58.1333 304.226 57.3227 304.632 56.36C305.088 55.3973 305.316 54.2827 305.316 53.016H314.436C314.436 55.5493 313.98 57.7533 313.068 59.628C312.206 61.5027 310.965 63.048 309.344 64.264C307.773 65.48 305.924 66.392 303.796 67C301.668 67.608 299.362 67.912 296.88 67.912ZM287.38 42.756H304.784C304.784 41.084 304.581 39.6653 304.176 38.5C303.821 37.3347 303.289 36.372 302.58 35.612C301.921 34.852 301.11 34.32 300.148 34.016C299.185 33.6613 298.096 33.484 296.88 33.484C294.904 33.484 293.232 33.8133 291.864 34.472C290.546 35.1307 289.533 36.144 288.824 37.512C288.114 38.88 287.633 40.628 287.38 42.756Z" fill="white"/>
<path d="M337.885 67.912C334.997 67.912 332.464 67.608 330.285 67C328.107 66.3413 326.283 65.4547 324.813 64.34C323.344 63.2253 322.229 61.9333 321.469 60.464C320.76 58.944 320.405 57.2973 320.405 55.524C320.405 55.2707 320.405 55.0427 320.405 54.84C320.456 54.6373 320.481 54.4853 320.481 54.384H329.601C329.601 54.4853 329.601 54.5867 329.601 54.688C329.601 54.7893 329.601 54.8907 329.601 54.992C329.652 56.36 330.083 57.4747 330.893 58.336C331.704 59.1467 332.768 59.7293 334.085 60.084C335.403 60.4387 336.796 60.616 338.265 60.616C339.583 60.616 340.824 60.4893 341.989 60.236C343.205 59.932 344.193 59.476 344.953 58.868C345.764 58.2093 346.169 57.3733 346.169 56.36C346.169 55.0427 345.663 54.0293 344.649 53.32C343.636 52.6107 342.293 52.028 340.621 51.572C339 51.116 337.252 50.6347 335.377 50.128C333.705 49.672 332.033 49.1653 330.361 48.608C328.689 48.0507 327.169 47.3413 325.801 46.48C324.484 45.6187 323.395 44.504 322.533 43.136C321.723 41.768 321.317 40.0707 321.317 38.044C321.317 36.068 321.748 34.3453 322.609 32.876C323.471 31.4067 324.661 30.1907 326.181 29.228C327.701 28.2147 329.5 27.4547 331.577 26.948C333.655 26.4413 335.909 26.188 338.341 26.188C340.723 26.188 342.876 26.4413 344.801 26.948C346.777 27.4547 348.475 28.1893 349.893 29.152C351.363 30.064 352.477 31.204 353.237 32.572C354.048 33.8893 354.453 35.3587 354.453 36.98C354.453 37.3347 354.428 37.6893 354.377 38.044C354.377 38.3987 354.377 38.6013 354.377 38.652H345.333V38.12C345.333 37.1573 345.029 36.3467 344.421 35.688C343.864 34.9787 343.028 34.4213 341.913 34.016C340.849 33.6107 339.507 33.408 337.885 33.408C336.669 33.408 335.605 33.5093 334.693 33.712C333.781 33.9147 333.021 34.1933 332.413 34.548C331.856 34.9027 331.425 35.308 331.121 35.764C330.817 36.22 330.665 36.7267 330.665 37.284C330.665 38.2467 331.045 39.0067 331.805 39.564C332.565 40.1213 333.579 40.6027 334.845 41.008C336.163 41.4133 337.581 41.844 339.101 42.3C340.925 42.8067 342.8 43.3387 344.725 43.896C346.651 44.4027 348.424 45.0613 350.045 45.872C351.717 46.6827 353.06 47.8227 354.073 49.292C355.087 50.7613 355.593 52.712 355.593 55.144C355.593 57.4747 355.137 59.476 354.225 61.148C353.364 62.7693 352.123 64.0867 350.501 65.1C348.931 66.0627 347.056 66.772 344.877 67.228C342.749 67.684 340.419 67.912 337.885 67.912Z" fill="white"/>
<path d="M379.002 67.912C376.114 67.912 373.581 67.608 371.402 67C369.224 66.3413 367.4 65.4547 365.93 64.34C364.461 63.2253 363.346 61.9333 362.586 60.464C361.877 58.944 361.522 57.2973 361.522 55.524C361.522 55.2707 361.522 55.0427 361.522 54.84C361.573 54.6373 361.598 54.4853 361.598 54.384H370.718C370.718 54.4853 370.718 54.5867 370.718 54.688C370.718 54.7893 370.718 54.8907 370.718 54.992C370.769 56.36 371.2 57.4747 372.01 58.336C372.821 59.1467 373.885 59.7293 375.202 60.084C376.52 60.4387 377.913 60.616 379.382 60.616C380.7 60.616 381.941 60.4893 383.106 60.236C384.322 59.932 385.31 59.476 386.07 58.868C386.881 58.2093 387.286 57.3733 387.286 56.36C387.286 55.0427 386.78 54.0293 385.766 53.32C384.753 52.6107 383.41 52.028 381.738 51.572C380.117 51.116 378.369 50.6347 376.494 50.128C374.822 49.672 373.15 49.1653 371.478 48.608C369.806 48.0507 368.286 47.3413 366.918 46.48C365.601 45.6187 364.512 44.504 363.65 43.136C362.84 41.768 362.434 40.0707 362.434 38.044C362.434 36.068 362.865 34.3453 363.726 32.876C364.588 31.4067 365.778 30.1907 367.298 29.228C368.818 28.2147 370.617 27.4547 372.694 26.948C374.772 26.4413 377.026 26.188 379.458 26.188C381.84 26.188 383.993 26.4413 385.918 26.948C387.894 27.4547 389.592 28.1893 391.01 29.152C392.48 30.064 393.594 31.204 394.354 32.572C395.165 33.8893 395.57 35.3587 395.57 36.98C395.57 37.3347 395.545 37.6893 395.494 38.044C395.494 38.3987 395.494 38.6013 395.494 38.652H386.45V38.12C386.45 37.1573 386.146 36.3467 385.538 35.688C384.981 34.9787 384.145 34.4213 383.03 34.016C381.966 33.6107 380.624 33.408 379.002 33.408C377.786 33.408 376.722 33.5093 375.81 33.712C374.898 33.9147 374.138 34.1933 373.53 34.548C372.973 34.9027 372.542 35.308 372.238 35.764C371.934 36.22 371.782 36.7267 371.782 37.284C371.782 38.2467 372.162 39.0067 372.922 39.564C373.682 40.1213 374.696 40.6027 375.962 41.008C377.28 41.4133 378.698 41.844 380.218 42.3C382.042 42.8067 383.917 43.3387 385.842 43.896C387.768 44.4027 389.541 45.0613 391.162 45.872C392.834 46.6827 394.177 47.8227 395.19 49.292C396.204 50.7613 396.71 52.712 396.71 55.144C396.71 57.4747 396.254 59.476 395.342 61.148C394.481 62.7693 393.24 64.0867 391.618 65.1C390.048 66.0627 388.173 66.772 385.994 67.228C383.866 67.684 381.536 67.912 379.002 67.912Z" fill="white"/>
<path d="M414.496 67L400.36 14.864H410.848L419.284 48.38C419.436 48.8867 419.588 49.596 419.74 50.508C419.892 51.3693 420.044 52.2813 420.196 53.244C420.348 54.2067 420.474 55.068 420.576 55.828H420.956C421.057 55.22 421.133 54.5613 421.184 53.852C421.285 53.1427 421.386 52.4333 421.488 51.724C421.64 51.0147 421.766 50.3813 421.868 49.824C421.969 49.216 422.045 48.7347 422.096 48.38L429.924 14.864H442.616L450.444 48.38C450.596 48.8867 450.748 49.596 450.9 50.508C451.052 51.3693 451.204 52.2813 451.356 53.244C451.508 54.2067 451.634 55.068 451.736 55.828H452.116C452.217 55.2707 452.318 54.6627 452.42 54.004C452.572 53.2947 452.698 52.6107 452.8 51.952C452.952 51.2427 453.104 50.584 453.256 49.976C453.408 49.368 453.534 48.836 453.636 48.38L462.072 14.864H471.344L457.132 67H445.808L437.372 32.8C437.22 32.0907 437.042 31.28 436.84 30.368C436.688 29.4053 436.536 28.468 436.384 27.556C436.282 26.5933 436.181 25.7573 436.08 25.048H435.776C435.725 25.808 435.624 26.6947 435.472 27.708C435.37 28.6707 435.244 29.608 435.092 30.52C434.94 31.432 434.788 32.192 434.636 32.8L426.276 67H414.496Z" fill="white"/>
<path d="M477.051 20.868V12.052H486.323V20.868H477.051ZM477.051 67V27.024H486.323V67H477.051Z" fill="white"/>
<path d="M493.084 67V62.668L513.3 34.624H494.376V27.024H526.828V31.28L506.536 59.4H527.664V67H493.084Z" fill="white"/>
<path d="M86.0938 72.8182H8.15625V1.90909C8.15625 1.40909 7.74844 1 7.25 1H0.90625C0.407812 1 0 1.40909 0 1.90909V80.0909C0 80.5909 0.407812 81 0.90625 81H86.0938C86.5922 81 87 80.5909 87 80.0909V73.7273C87 73.2273 86.5922 72.8182 86.0938 72.8182ZM20.1414 55.2841C20.4926 55.6364 21.059 55.6364 21.4215 55.2841L37.0883 39.6477L51.543 54.2386C51.8941 54.5909 52.4719 54.5909 52.823 54.2386L84.0207 22.9545C84.3719 22.6023 84.3719 22.0227 84.0207 21.6705L79.5348 17.1705C79.3644 17.0013 79.1344 16.9064 78.8947 16.9064C78.655 16.9064 78.425 17.0013 78.2547 17.1705L52.2 43.2955L37.768 28.7273C37.5976 28.5581 37.3676 28.4632 37.1279 28.4632C36.8882 28.4632 36.6582 28.5581 36.4879 28.7273L15.6668 49.4886C15.4981 49.6595 15.4035 49.8902 15.4035 50.1307C15.4035 50.3711 15.4981 50.6019 15.6668 50.7727L20.1414 55.2841Z" fill="white"/>
</svg>
